<svg width="24" height="24" viewBox="0 0 24 24" fill="none" xmlns="http://www.w3.org/2000/svg">
    <path
        d="M6 16.5L6.44721 16.7236C6.48193 16.6542 6.5 16.5776 6.5 16.5H6ZM5 18.5L4.55279 18.2764C4.47529 18.4314 4.48357 18.6155 4.57467 18.7629C4.66578 18.9103 4.82671 19 5 19V18.5ZM19 18.5V19C19.1733 19 19.3342 18.9103 19.4253 18.7629C19.5164 18.6155 19.5247 18.4314 19.4472 18.2764L19 18.5ZM18 16.5H17.5C17.5 16.5776 17.5181 16.6542 17.5528 16.7236L18 16.5ZM6.5 10.5C6.5 7.46243 8.96243 5 12 5V4C8.41015 4 5.5 6.91015 5.5 10.5H6.5ZM6.5 16.5V10.5H5.5V16.5H6.5ZM5.44721 18.7236L6.44721 16.7236L5.55279 16.2764L4.55279 18.2764L5.44721 18.7236ZM19 18H5V19H19V18ZM17.5528 16.7236L18.5528 18.7236L19.4472 18.2764L18.4472 16.2764L17.5528 16.7236ZM17.5 10.5V16.5H18.5V10.5H17.5ZM12 5C15.0376 5 17.5 7.46243 17.5 10.5H18.5C18.5 6.91015 15.5899 4 12 4V5Z"
        fill="#0B0B0B" />
    <path
        d="M12.5 2.5C12.5 2.22386 12.2761 2 12 2C11.7239 2 11.5 2.22386 11.5 2.5H12.5ZM11.5 2.5V3.25H12.5V2.5H11.5ZM11.5 3.25V4.5H12.5V3.25H11.5Z"
        fill="black" />
    <path d="M10 20C11 21.5 13 21.5 14 20" stroke="black" stroke-linecap="square" stroke-linejoin="round" />
    <rect x="4.69672" y="3.29291" width="23" height="2" transform="rotate(44.58 4.69672 3.29291)" fill="#0B0B0B"
        stroke="white" />
</svg>