<svg width="24" height="24" viewBox="0 0 24 24" fill="none" xmlns="http://www.w3.org/2000/svg">
<path d="M3 12L2.6336 11.6598C2.45547 11.8516 2.45547 12.1484 2.6336 12.3402L3 12ZM9.1336 19.3402C9.3215 19.5426 9.63787 19.5543 9.84023 19.3664C10.0426 19.1785 10.0543 18.8621 9.8664 18.6598L9.1336 19.3402ZM9.8664 5.34023C10.0543 5.13787 10.0426 4.8215 9.84023 4.6336C9.63787 4.4457 9.3215 4.45742 9.1336 4.65977L9.8664 5.34023ZM3 12.5H22V11.5H3V12.5ZM2.6336 12.3402L9.1336 19.3402L9.8664 18.6598L3.3664 11.6598L2.6336 12.3402ZM3.3664 12.3402L9.8664 5.34023L9.1336 4.65977L2.6336 11.6598L3.3664 12.3402Z" fill="black"/>
</svg>
