<svg width="24" height="24" viewBox="0 0 24 24" fill="none" xmlns="http://www.w3.org/2000/svg">
<path fill-rule="evenodd" clip-rule="evenodd" d="M16.3538 5.72144H18.9882C20.6451 5.72144 21.9882 7.06459 21.9882 8.72144V18.0221C21.9882 19.679 20.6451 21.0221 18.9882 21.0221H6C4.34315 21.0221 3 19.679 3 18.0221V8.72145C3 7.06459 4.34314 5.72144 6 5.72144H8.63421C9.99029 2.09285 14.9977 2.09285 16.3538 5.72144ZM15.2628 5.72144C14.1038 3.42619 10.8841 3.42619 9.72514 5.72144H15.2628ZM4 8.72145C4 7.61688 4.89543 6.72144 6 6.72144H18.9882C20.0928 6.72144 20.9882 7.61687 20.9882 8.72144V13.3058C17.7403 14.7246 15.1939 15.4025 12.6294 15.3968C10.0599 15.391 7.42517 14.6992 4 13.2965V8.72145ZM12.6271 16.3967C15.2717 16.4026 17.8558 15.7283 20.9882 14.3949V18.0221C20.9882 19.1267 20.0928 20.0221 18.9882 20.0221H6C4.89543 20.0221 4 19.1267 4 18.0221V14.3755C7.30208 15.6998 9.9732 16.3908 12.6271 16.3967ZM11.4324 13.6255H13.5559V12.6255H11.4324V13.6255Z" fill="black"/>
</svg>
