<svg width="24" height="24" viewBox="0 0 24 24" fill="none" xmlns="http://www.w3.org/2000/svg">
<path d="M18 8.6C18 7.11479 17.3679 5.69041 16.2426 4.6402C15.1174 3.59 13.5913 3 12 3C10.4087 3 8.88258 3.59 7.75736 4.6402C6.63214 5.69041 6 7.11479 6 8.6C6 15.1333 3 17 3 17H21C21 17 18 15.1333 18 8.6Z" fill="#F6C109" stroke="#F6C109" stroke-linecap="round" stroke-linejoin="round"/>
<path d="M13.73 20C13.5542 20.3031 13.3019 20.5547 12.9982 20.7295C12.6946 20.9044 12.3504 20.9965 12 20.9965C11.6496 20.9965 11.3054 20.9044 11.0018 20.7295C10.6982 20.5547 10.4458 20.3031 10.27 20" stroke="#F6C109" stroke-linecap="round" stroke-linejoin="round"/>
</svg>
