<svg width="24" height="24" viewBox="0 0 24 24" fill="none" xmlns="http://www.w3.org/2000/svg">
<path fill-rule="evenodd" clip-rule="evenodd" d="M9.43899 3.5C9.27181 3.5 9.1157 3.58355 9.02297 3.72265L7.4484 6.0845H4.26999C3.68041 6.0845 3.11498 6.31871 2.69809 6.7356C2.2812 7.1525 2.04699 7.71793 2.04699 8.3075V18.277C2.04699 18.8666 2.2812 19.432 2.69809 19.8489C3.11498 20.2658 3.68041 20.5 4.26999 20.5H19.777C20.3666 20.5 20.932 20.2658 21.3489 19.8489C21.7658 19.432 22 18.8666 22 18.277L22 8.3075C22 7.71793 21.7658 7.1525 21.3489 6.7356C20.932 6.31871 20.3666 6.0845 19.777 6.0845H16.5986L15.024 3.72265C14.9313 3.58355 14.7752 3.5 14.608 3.5H9.43899ZM8.13202 6.86185L9.70658 4.5H14.3404L15.915 6.86185C16.0077 7.00095 16.1638 7.0845 16.331 7.0845H19.777C20.1014 7.0845 20.4124 7.21335 20.6418 7.44271C20.8711 7.67207 21 7.98314 21 8.3075L21 18.277C21 18.6014 20.8711 18.9124 20.6418 19.1418C20.4124 19.3711 20.1014 19.5 19.777 19.5H4.26999C3.94563 19.5 3.63456 19.3711 3.4052 19.1418C3.17584 18.9124 3.04699 18.6014 3.04699 18.277V8.3075C3.04699 7.98314 3.17584 7.67207 3.4052 7.44271C3.63456 7.21335 3.94563 7.0845 4.26999 7.0845H7.71599C7.88317 7.0845 8.03928 7.00095 8.13202 6.86185ZM9.0305 13.115C9.0305 11.488 10.3495 10.169 11.9765 10.169C13.6035 10.169 14.9225 11.488 14.9225 13.115C14.9225 14.742 13.6035 16.061 11.9765 16.061C10.3495 16.061 9.0305 14.742 9.0305 13.115ZM11.9765 9.16901C9.79719 9.16901 8.0305 10.9357 8.0305 13.115C8.0305 15.2943 9.79719 17.061 11.9765 17.061C14.1558 17.061 15.9225 15.2943 15.9225 13.115C15.9225 10.9357 14.1558 9.16901 11.9765 9.16901Z" fill="#0B0B0B"/>
</svg>
