<svg width="24" height="24" viewBox="0 0 24 24" fill="none" xmlns="http://www.w3.org/2000/svg">
<path d="M12.5 5C10.9502 5 8.95721 5.44752 7.657 6.28849C6.3568 7.12945 5.32869 8.32786 4.69692 9.7389C4.06516 11.1499 3.85678 12.7132 4.09696 14.2398C4.33714 15.7664 5.0156 17.1909 6.05036 18.3413C7.08512 19.4917 8.43188 20.3187 9.9279 20.7223C11.4239 21.1259 13.0052 21.0889 14.4805 20.6157C15.9559 20.1426 17.2623 19.2535 18.2418 18.056C19.2213 16.8585 19.8319 15.4038 20 13.8676" stroke="black"/>
<path d="M9.3254 1.62037C9.11573 1.44066 8.80008 1.46494 8.62037 1.6746C8.44066 1.88427 8.46494 2.19992 8.6746 2.37963L9.3254 1.62037ZM12.5 5L12.8536 5.35355C12.952 5.25507 13.005 5.11998 12.9996 4.98081C12.9943 4.84164 12.9311 4.71101 12.8254 4.62037L12.5 5ZM8.64645 8.14645C8.45118 8.34171 8.45118 8.65829 8.64645 8.85355C8.84171 9.04882 9.15829 9.04882 9.35355 8.85355L8.64645 8.14645ZM8.6746 2.37963L12.1746 5.37963L12.8254 4.62037L9.3254 1.62037L8.6746 2.37963ZM12.1464 4.64645L8.64645 8.14645L9.35355 8.85355L12.8536 5.35355L12.1464 4.64645Z" fill="black"/>
</svg>
