<svg width="24" height="24" viewBox="0 0 24 24" fill="none" xmlns="http://www.w3.org/2000/svg">
<mask id="path-1-inside-1_1083_2529" fill="white">
<path fill-rule="evenodd" clip-rule="evenodd" d="M12.45 3C17.172 3 21 6.82797 21 11.55C21 16.272 17.172 20.1 12.45 20.1C10.691 20.1 9.056 19.5688 7.69677 18.6581L3 19.2L5.14093 15.9886C4.35352 14.6948 3.9 13.1753 3.9 11.55C3.9 6.82797 7.72797 3 12.45 3Z"/>
</mask>
<path d="M7.69677 18.6581L7.58215 17.6647L7.9477 17.6225L8.25341 17.8273L7.69677 18.6581ZM3 19.2L3.11462 20.1934L0.970982 20.4408L2.16795 18.6453L3 19.2ZM5.14093 15.9886L5.99517 15.4687L6.32645 16.0131L5.97298 16.5433L5.14093 15.9886ZM20 11.55C20 7.38025 16.6197 4 12.45 4V2C17.7243 2 22 6.27568 22 11.55H20ZM12.45 19.1C16.6197 19.1 20 15.7197 20 11.55H22C22 16.8243 17.7243 21.1 12.45 21.1V19.1ZM8.25341 17.8273C9.45311 18.6312 10.8953 19.1 12.45 19.1V21.1C10.4866 21.1 8.65889 20.5064 7.14013 19.4888L8.25341 17.8273ZM7.81139 19.6515L3.11462 20.1934L2.88538 18.2066L7.58215 17.6647L7.81139 19.6515ZM2.16795 18.6453L4.30888 15.4339L5.97298 16.5433L3.83205 19.7547L2.16795 18.6453ZM4.9 11.55C4.9 12.9868 5.3004 14.3271 5.99517 15.4687L4.28668 16.5085C3.40665 15.0624 2.9 13.3639 2.9 11.55H4.9ZM12.45 4C8.28025 4 4.9 7.38025 4.9 11.55H2.9C2.9 6.27568 7.17568 2 12.45 2V4Z" fill="#0B0B0B" mask="url(#path-1-inside-1_1083_2529)"/>
</svg>
