<svg width="24" height="24" viewBox="0 0 24 24" fill="none" xmlns="http://www.w3.org/2000/svg">
<mask id="path-1-inside-1_20_28" fill="white">
<path fill-rule="evenodd" clip-rule="evenodd" d="M12.45 3C17.172 3 21 6.82797 21 11.55C21 16.272 17.172 20.1 12.45 20.1C10.691 20.1 9.056 19.5688 7.69677 18.6581L3 19.2L5.14093 15.9886C4.35352 14.6948 3.9 13.1753 3.9 11.55C3.9 6.82797 7.72797 3 12.45 3ZM12 11V8H13V11H16V12H13V15H12V12H9V11H12Z"/>
</mask>
<path fill-rule="evenodd" clip-rule="evenodd" d="M12.45 3C17.172 3 21 6.82797 21 11.55C21 16.272 17.172 20.1 12.45 20.1C10.691 20.1 9.056 19.5688 7.69677 18.6581L3 19.2L5.14093 15.9886C4.35352 14.6948 3.9 13.1753 3.9 11.55C3.9 6.82797 7.72797 3 12.45 3ZM12 11V8H13V11H16V12H13V15H12V12H9V11H12Z" fill="#F6C109"/>
<path d="M7.69677 18.6581L8.25341 17.8273L7.9477 17.6225L7.58215 17.6647L7.69677 18.6581ZM3 19.2L2.16795 18.6453L0.970981 20.4408L3.11462 20.1934L3 19.2ZM5.14093 15.9886L5.97298 16.5433L6.32645 16.0131L5.99517 15.4687L5.14093 15.9886ZM12 8V7H11V8H12ZM12 11V12H13V11H12ZM13 8H14V7H13V8ZM13 11H12V12H13V11ZM16 11H17V10H16V11ZM16 12V13H17V12H16ZM13 12V11H12V12H13ZM13 15V16H14V15H13ZM12 15H11V16H12V15ZM12 12H13V11H12V12ZM9 12H8V13H9V12ZM9 11V10H8V11H9ZM22 11.55C22 6.27568 17.7243 2 12.45 2V4C16.6197 4 20 7.38025 20 11.55H22ZM12.45 21.1C17.7243 21.1 22 16.8243 22 11.55H20C20 15.7197 16.6197 19.1 12.45 19.1V21.1ZM7.14013 19.4888C8.6589 20.5064 10.4866 21.1 12.45 21.1V19.1C10.8953 19.1 9.45311 18.6312 8.25341 17.8273L7.14013 19.4888ZM3.11462 20.1934L7.81139 19.6515L7.58215 17.6647L2.88538 18.2066L3.11462 20.1934ZM4.30888 15.4339L2.16795 18.6453L3.83205 19.7547L5.97298 16.5433L4.30888 15.4339ZM2.9 11.55C2.9 13.3639 3.40665 15.0624 4.28668 16.5085L5.99517 15.4687C5.3004 14.3271 4.9 12.9868 4.9 11.55H2.9ZM12.45 2C7.17568 2 2.9 6.27568 2.9 11.55H4.9C4.9 7.38025 8.28025 4 12.45 4V2ZM11 8V11H13V8H11ZM13 7H12V9H13V7ZM14 11V8H12V11H14ZM13 12H16V10H13V12ZM15 11V12H17V11H15ZM16 11H13V13H16V11ZM14 15V12H12V15H14ZM12 16H13V14H12V16ZM11 12V15H13V12H11ZM12 11H9V13H12V11ZM10 12V11H8V12H10ZM9 12H12V10H9V12Z" fill="#F6C109" mask="url(#path-1-inside-1_20_28)"/>
</svg>
