<svg width="24" height="24" viewBox="0 0 24 24" fill="none" xmlns="http://www.w3.org/2000/svg">
<path d="M16 4.5H18C18.5304 4.5 19.0391 4.71071 19.4142 5.08579C19.7893 5.46086 20 5.96957 20 6.5V18.5C20 19.0304 19.7893 19.5391 19.4142 19.9142C19.0391 20.2893 18.5304 20.5 18 20.5H6C5.46957 20.5 4.96086 20.2893 4.58579 19.9142C4.21071 19.5391 4 19.0304 4 18.5V6.5C4 5.96957 4.21071 5.46086 4.58579 5.08579C4.96086 4.71071 5.46957 4.5 6 4.5H8" stroke="black" stroke-linecap="square" stroke-linejoin="round"/>
<path d="M15 2.5H9C8.44772 2.5 8 2.94772 8 3.5V5.5C8 6.05228 8.44772 6.5 9 6.5H15C15.5523 6.5 16 6.05228 16 5.5V3.5C16 2.94772 15.5523 2.5 15 2.5Z" stroke="black" stroke-linecap="round" stroke-linejoin="round"/>
</svg>
