<svg width="24" height="24" viewBox="0 0 24 24" fill="none" xmlns="http://www.w3.org/2000/svg">
<path fill-rule="evenodd" clip-rule="evenodd" d="M20 11.55C20 7.38025 16.6197 4 12.45 4C8.28025 4 4.9 7.38025 4.9 11.55L12.45 11.55L20 11.55ZM18.5551 17.5358C20.0674 15.9936 21 13.8807 21 11.55C21 6.82797 17.172 3 12.45 3C7.72797 3 3.9 6.82797 3.9 11.55C3.9 13.1753 4.35352 14.6948 5.14093 15.9886L3.72701 18.1095L3 19.2L4.30201 19.0498L7.69677 18.6581C9.04126 19.5589 10.6555 20.0884 12.3928 20.0998C12.4118 20.0999 12.4309 20.1 12.45 20.1C12.4702 20.1 12.4904 20.0999 12.5105 20.0998C14.8173 20.0838 16.9069 19.1543 18.4358 17.6551C18.4559 17.6354 18.4759 17.6157 18.4958 17.5958C18.5156 17.5759 18.5354 17.5559 18.5551 17.5358Z" fill="#F6C109"/>
</svg>
