<svg width="24" height="24" viewBox="0 0 24 24" fill="none" xmlns="http://www.w3.org/2000/svg">
<path d="M20 14.8866C20 15.3875 19.801 15.868 19.4468 16.2222C19.0925 16.5765 18.6121 16.7755 18.1111 16.7755H7.77778L4 20V5.44213C4 4.94116 4.19901 4.46072 4.55324 4.10648C4.90748 3.75225 5.38792 3.55324 5.88889 3.55324H18.1111C18.6121 3.55324 19.0925 3.75225 19.4468 4.10648C19.801 4.46072 20 4.94116 20 5.44213V14.8866Z" stroke="#0B0B0B" stroke-linecap="round" stroke-linejoin="round"/>
<path d="M9 10.5C9 11.0523 8.55228 11.5 8 11.5C7.44772 11.5 7 11.0523 7 10.5C7 9.94772 7.44772 9.5 8 9.5C8.55228 9.5 9 9.94772 9 10.5Z" fill="#0B0B0B"/>
<path d="M13 10.5C13 11.0523 12.5523 11.5 12 11.5C11.4477 11.5 11 11.0523 11 10.5C11 9.94772 11.4477 9.5 12 9.5C12.5523 9.5 13 9.94772 13 10.5Z" fill="#0B0B0B"/>
<path d="M17 10.5C17 11.0523 16.5523 11.5 16 11.5C15.4477 11.5 15 11.0523 15 10.5C15 9.94772 15.4477 9.5 16 9.5C16.5523 9.5 17 9.94772 17 10.5Z" fill="#0B0B0B"/>
</svg>
