<svg width="24" height="24" viewBox="0 0 24 24" fill="none" xmlns="http://www.w3.org/2000/svg">
<path fill-rule="evenodd" clip-rule="evenodd" d="M11.4672 3.5387V3.0387H10.4672V3.5387V6.2755V6.7755H11.4672V6.2755V3.5387ZM11.4672 15.6588V15.1588H10.4672V15.6588V18.3956V18.8956H11.4672V18.3956V15.6588ZM5.49355 4.78646L5.8471 5.14001L8.00527 7.29817L8.35882 7.65172L7.65172 8.35883L7.29816 8.00528L5.14 5.84712L4.78644 5.49356L5.49355 4.78646ZM14.6362 13.9291L14.2826 13.5755L13.5755 14.2826L13.9291 14.6362L19.8846 20.5917L20.2382 20.9453L20.9453 20.2382L20.5917 19.8846L14.6362 13.9291ZM3.03869 10.4672H3.53869H6.2755H6.7755V11.4672H6.2755H3.53869H3.03869V10.4672ZM15.6588 10.4672H15.1588V11.4672H15.6588H18.3956H18.8956V10.4672H18.3956H15.6588ZM8.35882 14.2826L8.00527 14.6362L5.8471 16.7943L5.49355 17.1479L4.78644 16.4408L5.14 16.0872L7.29816 13.9291L7.65172 13.5755L8.35882 14.2826ZM16.7943 5.84712L17.1479 5.49356L16.4408 4.78646L16.0872 5.14001L13.9291 7.29817L13.5755 7.65172L14.2826 8.35883L14.6362 8.00528L16.7943 5.84712Z" fill="black"/>
</svg>
