<svg width="24" height="24" viewBox="0 0 24 24" fill="none" xmlns="http://www.w3.org/2000/svg">
<path d="M12 21.5C17.2467 21.5 21.5 17.2467 21.5 12C21.5 6.75329 17.2467 2.5 12 2.5C6.75329 2.5 2.5 6.75329 2.5 12C2.5 17.2467 6.75329 21.5 12 21.5Z" stroke="black"/>
<circle cx="8" cy="11" r="1" fill="black"/>
<path d="M17 11C17 11.5523 16.5523 12 16 12C15.4477 12 15 11.5523 15 11C15 10.4477 15.4477 10 16 10C16.5523 10 17 10.4477 17 11Z" fill="black"/>
<path d="M9 15C11 17 13 17 15 15" stroke="black"/>
<path d="M12 12.5C11 12.5 11 14 12 14" stroke="black" stroke-linecap="round"/>
</svg>
