<svg width="24" height="24" viewBox="0 0 24 24" fill="none" xmlns="http://www.w3.org/2000/svg">
<path d="M19.5 11.5008L12.4083 18.635C11.5396 19.509 10.3612 20 9.1326 20C7.90396 20 6.72564 19.509 5.85686 18.635C4.98808 17.761 4.5 16.5756 4.5 15.3396C4.5 14.1036 4.98808 12.9182 5.85686 12.0442L12.9485 4.91C13.5277 4.32734 14.3132 4 15.1323 4C15.9514 4 16.737 4.32734 17.3162 4.91C17.8954 5.49266 18.2207 6.28292 18.2207 7.10693C18.2207 7.93094 17.8954 8.7212 17.3162 9.30386L10.2168 16.4381C9.9272 16.7294 9.53443 16.8931 9.12488 16.8931C8.71534 16.8931 8.32256 16.7294 8.03297 16.4381C7.74338 16.1467 7.58068 15.7516 7.58068 15.3396C7.58068 14.9276 7.74338 14.5325 8.03297 14.2411L14.5845 7.6581" stroke="black" stroke-linecap="round" stroke-linejoin="round"/>
</svg>
