<svg width="24" height="24" viewBox="0 0 24 24" fill="none" xmlns="http://www.w3.org/2000/svg">
<path d="M21 12H16L14 13H10L8 12H3.5" stroke="#0B0B0B" stroke-linecap="round" stroke-linejoin="round"/>
<path d="M6.5 4.5L3.41406 12V18C3.41406 18.5304 3.62478 19.0391 3.99985 19.4142C4.37492 19.7893 4.88363 20 5.41406 20L19.0001 20C19.5305 20 20.0392 19.7893 20.4143 19.4142C20.7894 19.0391 21.0001 18.5304 21.0001 18V12L17.5 4.5C17.3344 4.16679 17.0792 3.88637 16.763 3.69028C16.4467 3.49419 16.0821 3.3902 15.71 3.39H8.29C7.91792 3.3902 7.55326 3.49419 7.23704 3.69028C6.92083 3.88637 6.66558 4.16679 6.5 4.5Z" stroke="#0B0B0B" stroke-linecap="round" stroke-linejoin="round"/>
<path d="M9.5 15.5H14.5" stroke="#0B0B0B"/>
</svg>
