<svg width="24" height="24" viewBox="0 0 24 24" fill="none" xmlns="http://www.w3.org/2000/svg">
<path d="M20.0349 6.00882C19.5707 5.53048 19.0195 5.15103 18.4128 4.89214C17.8061 4.63325 17.1558 4.5 16.4991 4.5C15.8424 4.5 15.1921 4.63325 14.5854 4.89214C13.9787 5.15103 13.4275 5.53048 12.9633 6.00882L11.9998 7.00107L11.0363 6.00882C10.0985 5.04306 8.82662 4.5005 7.50043 4.5005C6.17423 4.5005 4.90235 5.04306 3.96459 6.00882C3.02683 6.97458 2.5 8.28443 2.5 9.65022C2.5 11.016 3.02683 12.3259 3.96459 13.2916L4.92808 14.2839L11.9998 20.5L19.0714 14.2839L20.0349 13.2916C20.4994 12.8135 20.8678 12.2458 21.1192 11.621C21.3706 10.9962 21.5 10.3265 21.5 9.65022C21.5 8.9739 21.3706 8.30421 21.1192 7.67941C20.8678 7.05461 20.4994 6.48693 20.0349 6.00882Z" stroke="black" stroke-linecap="round" stroke-linejoin="round"/>
</svg>
