<svg width="24" height="24" viewBox="0 0 24 24" fill="none" xmlns="http://www.w3.org/2000/svg">
<mask id="path-1-inside-1_1051_2282" fill="white">
<path fill-rule="evenodd" clip-rule="evenodd" d="M15.5 8C12.4624 8 10 10.4624 10 13.5C10 16.5376 12.4624 19 15.5 19C16.6315 19 17.6833 18.6583 18.5576 18.0724L21.5789 18.421L20.2017 16.3552C20.7083 15.5229 21 14.5455 21 13.5C21 10.4624 18.5376 8 15.5 8Z"/>
</mask>
<path fill-rule="evenodd" clip-rule="evenodd" d="M15.5 8C12.4624 8 10 10.4624 10 13.5C10 16.5376 12.4624 19 15.5 19C16.6315 19 17.6833 18.6583 18.5576 18.0724L21.5789 18.421L20.2017 16.3552C20.7083 15.5229 21 14.5455 21 13.5C21 10.4624 18.5376 8 15.5 8Z" fill="white"/>
<path d="M18.5576 18.0724L18.6723 17.079L18.3067 17.0368L18.001 17.2417L18.5576 18.0724ZM21.5789 18.421L21.4643 19.4145L23.608 19.6618L22.411 17.8663L21.5789 18.421ZM20.2017 16.3552L19.3475 15.8354L19.0162 16.3797L19.3697 16.9099L20.2017 16.3552ZM11 13.5C11 11.0147 13.0147 9 15.5 9V7C11.9101 7 9 9.91015 9 13.5H11ZM15.5 18C13.0147 18 11 15.9853 11 13.5H9C9 17.0899 11.9101 20 15.5 20V18ZM18.001 17.2417C17.2862 17.7206 16.4272 18 15.5 18V20C16.8359 20 18.0804 19.5959 19.1143 18.9032L18.001 17.2417ZM18.443 19.0658L21.4643 19.4145L21.6936 17.4276L18.6723 17.079L18.443 19.0658ZM22.411 17.8663L21.0338 15.8005L19.3697 16.9099L20.7469 18.9757L22.411 17.8663ZM20 13.5C20 14.357 19.7614 15.1553 19.3475 15.8354L21.056 16.8751C21.6551 15.8906 22 14.734 22 13.5H20ZM15.5 9C17.9853 9 20 11.0147 20 13.5H22C22 9.91015 19.0899 7 15.5 7V9Z" fill="black" mask="url(#path-1-inside-1_1051_2282)"/>
<path d="M6.99398 15.9719L6.84113 15.8694L6.65835 15.8905L4.01451 16.1956L5.10974 14.5527L5.28648 14.2876L5.12084 14.0155C4.54424 13.068 4.21202 11.9556 4.21202 10.764C4.21202 7.30448 7.0165 4.5 10.476 4.5C13.9355 4.5 16.74 7.30448 16.74 10.764C16.74 14.2235 13.9355 17.028 10.476 17.028C9.18657 17.028 7.98952 16.6389 6.99398 15.9719Z" fill="white" stroke="black" stroke-linecap="round"/>
</svg>
