<svg width="24" height="24" viewBox="0 0 24 24" fill="none" xmlns="http://www.w3.org/2000/svg">
<path d="M12.5 4L12.8221 3.61754L12.5 3.34633L12.1779 3.61754L12.5 4ZM5.78947 20.5526H5.28947V21.0526H5.78947V20.5526ZM19.2105 20.5526V21.0526H19.7105V20.5526H19.2105ZM4.32207 11.5404L12.8221 4.38246L12.1779 3.61754L3.67793 10.7754L4.32207 11.5404ZM12.1779 4.38246L20.6779 11.5404L21.3221 10.7754L12.8221 3.61754L12.1779 4.38246ZM5.28947 12.5V20.5526H6.28947V12.5H5.28947ZM5.78947 21.0526H19.2105V20.0526H5.78947V21.0526ZM19.7105 20.5526V12.5H18.7105V20.5526H19.7105Z" fill="#F6C109"/>
</svg>
