<svg width="24" height="24" viewBox="0 0 24 24" fill="none" xmlns="http://www.w3.org/2000/svg">
<path d="M2 12L13 12" stroke="black"/>
<path d="M9 8L13.5 12L9 16" stroke="black" stroke-linecap="round" stroke-linejoin="round"/>
<path d="M13.859 20.8059L13.9622 21.2951L13.859 20.8059ZM20.9994 11.8947L20.4994 11.9006L20.9994 11.8947ZM18.8898 6.20946L19.2726 5.88776L18.8898 6.20946ZM13.6524 3.153L13.7442 2.66149L13.6524 3.153ZM7.62006 20.4301C9.5704 21.4434 11.8118 21.7491 13.9622 21.2951L13.7557 20.3167C11.8316 20.7229 9.82615 20.4494 8.08111 19.5427L7.62006 20.4301ZM13.9622 21.2951C16.1127 20.8412 18.0393 19.6556 19.4136 17.9404L18.6332 17.3151C17.4036 18.8497 15.6798 19.9105 13.7557 20.3167L13.9622 21.2951ZM19.4136 17.9404C20.788 16.2252 21.5251 14.0866 21.4994 11.8889L20.4994 11.9006C20.5224 13.8669 19.8629 15.7805 18.6332 17.3151L19.4136 17.9404ZM21.4994 11.8889C21.4736 9.69113 20.6867 7.57031 19.2726 5.88776L18.5071 6.53115C19.7723 8.03659 20.4764 9.93417 20.4994 11.9006L21.4994 11.8889ZM19.2726 5.88776C17.8585 4.20521 15.9047 3.06503 13.7442 2.66149L13.5606 3.6445C15.4937 4.00555 17.2418 5.02571 18.5071 6.53115L19.2726 5.88776ZM13.7442 2.66149C11.5837 2.25796 9.35011 2.61604 7.42402 3.67472L7.9057 4.55106C9.62905 3.60382 11.6275 3.28344 13.5606 3.6445L13.7442 2.66149Z" fill="black"/>
</svg>
