<svg width="24" height="24" viewBox="0 0 24 24" fill="none" xmlns="http://www.w3.org/2000/svg">
<path d="M12 21.5C17.2467 21.5 21.5 17.2467 21.5 12C21.5 6.75329 17.2467 2.5 12 2.5C6.75329 2.5 2.5 6.75329 2.5 12C2.5 17.2467 6.75329 21.5 12 21.5Z" stroke="black" stroke-linecap="round" stroke-linejoin="round"/>
<path d="M9.09 9C9.3251 8.33167 9.78915 7.7681 10.4 7.40913C11.0108 7.05016 11.7289 6.91894 12.4272 7.03871C13.1255 7.15848 13.7588 7.52152 14.2151 8.06353C14.6713 8.60553 14.9211 9.29152 14.92 10C14.92 12 11.92 13 11.92 13V14" stroke="black" stroke-linecap="round" stroke-linejoin="round"/>
<path d="M12 17H12.01" stroke="black" stroke-linecap="round" stroke-linejoin="round"/>
</svg>
