<svg width="24" height="24" viewBox="0 0 24 24" fill="none" xmlns="http://www.w3.org/2000/svg">
<mask id="path-1-inside-1_134_331" fill="white">
<path fill-rule="evenodd" clip-rule="evenodd" d="M14.1852 15.401C15.9064 14.4619 17.0741 12.6358 17.0741 10.537C17.0741 7.47902 14.5951 5 11.537 5C8.47902 5 6 7.47902 6 10.537C6 12.6358 7.16771 14.4619 8.88889 15.401V16C8.88889 16.5523 9.3366 17 9.88889 17H13.1852C13.7375 17 14.1852 16.5523 14.1852 16V15.401ZM9.5 18.5C9.5 18.2239 9.72386 18 10 18H13C13.2761 18 13.5 18.2239 13.5 18.5C13.5 18.7761 13.2761 19 13 19H10C9.72386 19 9.5 18.7761 9.5 18.5Z"/>
</mask>
<path d="M14.1852 15.401L13.7062 14.5231L13.1852 14.8074V15.401H14.1852ZM8.88889 15.401H9.88889V14.8074L9.36784 14.5231L8.88889 15.401ZM16.0741 10.537C16.0741 12.2554 15.1191 13.7522 13.7062 14.5231L14.6641 16.2788C16.6936 15.1715 18.0741 13.0162 18.0741 10.537H16.0741ZM11.537 6C14.0428 6 16.0741 8.0313 16.0741 10.537H18.0741C18.0741 6.92673 15.1473 4 11.537 4V6ZM7 10.537C7 8.0313 9.0313 6 11.537 6V4C7.92673 4 5 6.92673 5 10.537H7ZM9.36784 14.5231C7.95494 13.7522 7 12.2554 7 10.537H5C5 13.0162 6.38048 15.1715 8.40993 16.2788L9.36784 14.5231ZM7.88889 15.401V16H9.88889V15.401H7.88889ZM7.88889 16C7.88889 17.1046 8.78432 18 9.88889 18V16H9.88889H7.88889ZM9.88889 18H13.1852V16H9.88889V18ZM13.1852 18C14.2898 18 15.1852 17.1046 15.1852 16H13.1852V18ZM15.1852 16V15.401H13.1852V16H15.1852ZM10 17C9.17157 17 8.5 17.6716 8.5 18.5H10.5C10.5 18.7761 10.2761 19 10 19V17ZM13 17H10V19H13V17ZM14.5 18.5C14.5 17.6716 13.8284 17 13 17V19C12.7239 19 12.5 18.7761 12.5 18.5H14.5ZM13 20C13.8284 20 14.5 19.3284 14.5 18.5H12.5C12.5 18.2239 12.7239 18 13 18V20ZM10 20H13V18H10V20ZM8.5 18.5C8.5 19.3284 9.17157 20 10 20V18C10.2761 18 10.5 18.2239 10.5 18.5H8.5Z" fill="#B1B1B1" mask="url(#path-1-inside-1_134_331)"/>
</svg>
