<svg width="24" height="24" viewBox="0 0 24 24" fill="none" xmlns="http://www.w3.org/2000/svg">
<path d="M10.3333 12.8333C10.6912 13.3118 11.1478 13.7077 11.6721 13.9941C12.1965 14.2806 12.7763 14.4509 13.3722 14.4936C13.9682 14.5363 14.5663 14.4503 15.1261 14.2415C15.6859 14.0327 16.1943 13.7059 16.6167 13.2833L19.1167 10.7833C19.8757 9.99749 20.2956 8.94498 20.2861 7.85249C20.2766 6.76001 19.8384 5.71496 19.0659 4.94242C18.2934 4.16989 17.2483 3.73169 16.1558 3.72219C15.0634 3.7127 14.0108 4.13268 13.225 4.89167L11.7917 6.31667" stroke="black" stroke-linecap="round" stroke-linejoin="round"/>
<path d="M13.6667 10.3333C13.3088 9.85489 12.8522 9.45902 12.3279 9.17255C11.8035 8.88609 11.2237 8.71574 10.6278 8.67306C10.0318 8.63037 9.43368 8.71636 8.87388 8.92518C8.31408 9.134 7.80574 9.46078 7.38333 9.88333L4.88333 12.3833C4.12434 13.1692 3.70436 14.2217 3.71386 15.3142C3.72335 16.4067 4.16155 17.4517 4.93409 18.2242C5.70662 18.9968 6.75167 19.435 7.84416 19.4445C8.93665 19.454 9.98916 19.034 10.775 18.275L12.2 16.85" stroke="black" stroke-linecap="round" stroke-linejoin="round"/>
</svg>
