<svg width="24" height="24" viewBox="0 0 24 24" fill="none" xmlns="http://www.w3.org/2000/svg">
<path fill-rule="evenodd" clip-rule="evenodd" d="M7.41264 5.63762C8.63381 4.35302 10.2845 3.63637 12 3.63637C13.7155 3.63637 15.3662 4.35302 16.5874 5.63762C17.8093 6.92308 18.5 8.67171 18.5 10.5C18.5 13.172 16.8568 15.7121 15.1285 17.6313C14.2731 18.5811 13.4161 19.3575 12.7727 19.8965C12.4523 20.1649 12.1858 20.3736 12 20.5148C11.8142 20.3736 11.5477 20.1649 11.2273 19.8965C10.5839 19.3575 9.72695 18.5811 8.87154 17.6313C7.14316 15.7121 5.5 13.172 5.5 10.5C5.5 8.67171 6.19066 6.92308 7.41264 5.63762ZM11.7126 21.5455C11.7128 21.5456 11.7129 21.5457 12 21.1364L11.7129 21.5457C11.8852 21.6666 12.1148 21.6666 12.2871 21.5457L12 21.1364C12.2871 21.5457 12.2872 21.5456 12.2874 21.5455L12.2878 21.5452L12.2892 21.5442L12.2939 21.5409L12.3108 21.5289C12.3252 21.5186 12.3461 21.5036 12.373 21.484C12.4269 21.4447 12.5047 21.3872 12.6033 21.3124C12.8002 21.1627 13.0799 20.9437 13.4148 20.6631C14.0839 20.1027 14.9769 19.2939 15.8715 18.3005C17.6432 16.3333 19.5 13.5553 19.5 10.5C19.5 8.42238 18.7157 6.42507 17.3121 4.94863C15.9078 3.47134 13.9975 2.63637 12 2.63637C10.0025 2.63637 8.09221 3.47134 6.68786 4.94863C5.28434 6.42507 4.5 8.42238 4.5 10.5C4.5 13.5553 6.35684 16.3333 8.12846 18.3005C9.02305 19.2939 9.91614 20.1027 10.5852 20.6631C10.9201 20.9437 11.1998 21.1627 11.3967 21.3124C11.4953 21.3872 11.5731 21.4447 11.627 21.484C11.6539 21.5036 11.6748 21.5186 11.6892 21.5289L11.7061 21.5409L11.7108 21.5442L11.7122 21.5452L11.7126 21.5455ZM10.5 10C10.5 9.17158 11.1716 8.5 12 8.5C12.8284 8.5 13.5 9.17158 13.5 10C13.5 10.8284 12.8284 11.5 12 11.5C11.1716 11.5 10.5 10.8284 10.5 10ZM12 7.5C10.6193 7.5 9.5 8.61929 9.5 10C9.5 11.3807 10.6193 12.5 12 12.5C13.3807 12.5 14.5 11.3807 14.5 10C14.5 8.61929 13.3807 7.5 12 7.5Z" fill="black"/>
</svg>
