<svg width="24" height="24" viewBox="0 0 24 24" fill="none" xmlns="http://www.w3.org/2000/svg">
<path d="M6.9164 8.74418L19.2343 5.34889C19.871 5.17337 20.5 5.65244 20.5 6.31293V17.7171C20.5 18.3684 19.8875 18.8458 19.2559 18.6869L6.9164 15.5814M6.9164 8.74418H4C3.44772 8.74418 3 9.1919 3 9.74418V14.5814C3 15.1337 3.44772 15.5814 4 15.5814L6.9164 15.5814M6.9164 8.74418V15.5814" stroke="black" stroke-linecap="round" stroke-linejoin="round"/>
<path d="M5.5 16C5.5 15.7239 5.27614 15.5 5 15.5C4.72386 15.5 4.5 15.7239 4.5 16H5.5ZM9 16C9 15.7239 8.77614 15.5 8.5 15.5C8.22386 15.5 8 15.7239 8 16H9ZM4.5 16V17.5H5.5V16H4.5ZM6 19H7.5V18H6V19ZM9 17.5V16H8V17.5H9ZM7.5 19C8.32843 19 9 18.3284 9 17.5H8C8 17.7761 7.77614 18 7.5 18V19ZM4.5 17.5C4.5 18.3284 5.17157 19 6 19V18C5.72386 18 5.5 17.7761 5.5 17.5H4.5Z" fill="black"/>
</svg>
