<svg width="24" height="24" viewBox="0 0 24 24" fill="none" xmlns="http://www.w3.org/2000/svg">
<path d="M18.6425 13.4097L18.5781 13.7571L18.884 13.9338L20.4737 14.8518C20.0776 16.1087 19.4117 17.2439 18.5439 18.1893L16.9617 17.2757L16.6565 17.0994L16.3879 17.3277C15.7515 17.8687 15.0234 18.2892 14.2392 18.5682L13.9068 18.6865V19.0393V20.8677C12.6745 21.1379 11.349 21.1515 10.0545 20.8677V19.0393V18.6845L9.71955 18.5674C8.93329 18.2923 8.20696 17.8728 7.5757 17.3297L7.30677 17.0983L6.99957 17.2757L5.4175 18.1893C4.54969 17.2403 3.88406 16.1055 3.48803 14.8531L5.07346 13.9376L5.37944 13.7609L5.31505 13.4135C5.16321 12.5942 5.16321 11.7538 5.31505 10.9345L5.37944 10.5871L5.07346 10.4104L3.48801 9.49484C3.88413 8.2385 4.54987 7.10372 5.41741 6.15866L6.99533 7.072L7.30075 7.24879L7.56964 7.02024C8.20605 6.47928 8.93411 6.05879 9.71831 5.77972L10.0507 5.66145V5.30866V3.4803C11.283 3.21009 12.6085 3.19648 13.903 3.4803V5.30487V5.65968L14.238 5.77683C15.0242 6.05185 15.7505 6.47141 16.3818 7.01451L16.6507 7.24587L16.9579 7.06847L18.54 6.15488C19.4078 7.10385 20.0734 8.23872 20.4695 9.49107L18.884 10.4066L18.5781 10.5833L18.6425 10.9307C18.7943 11.75 18.7943 12.5904 18.6425 13.4097ZM8.44414 12.1702C8.44414 14.1181 10.0289 15.7029 11.9769 15.7029C13.9248 15.7029 15.5096 14.1181 15.5096 12.1702C15.5096 10.2223 13.9248 8.63747 11.9769 8.63747C10.0289 8.63747 8.44414 10.2223 8.44414 12.1702Z" fill="white" stroke="black"/>
</svg>
