<svg width="24" height="24" viewBox="0 0 24 24" fill="none" xmlns="http://www.w3.org/2000/svg">
<path d="M10 12L21 12" stroke="black"/>
<path d="M17 8L21.5 12L17 16" stroke="black" stroke-linecap="round" stroke-linejoin="round"/>
<path d="M9.78639 3.19409L9.68311 2.70487L9.78639 3.19409ZM2.64597 12.1053L3.14594 12.0995L2.64597 12.1053ZM4.75554 17.7906L4.37277 18.1123L4.75554 17.7906ZM9.99294 20.847L9.90114 21.3385L9.99294 20.847ZM16.0253 3.56994C14.075 2.55662 11.8336 2.2509 9.68311 2.70487L9.88966 3.68331C11.8138 3.27712 13.8192 3.55066 15.5642 4.45732L16.0253 3.56994ZM9.68311 2.70487C7.53263 3.15885 5.60609 4.34443 4.23175 6.05961L5.01213 6.68491C6.2418 5.15028 7.96555 4.0895 9.88966 3.68331L9.68311 2.70487ZM4.23175 6.05961C2.8574 7.77479 2.12029 9.91344 2.14601 12.1112L3.14594 12.0995C3.12293 10.1331 3.78245 8.21955 5.01213 6.68491L4.23175 6.05961ZM2.14601 12.1112C2.17172 14.3089 2.95867 16.4297 4.37277 18.1123L5.13831 17.4689C3.87306 15.9634 3.16895 14.0658 3.14594 12.0995L2.14601 12.1112ZM4.37277 18.1123C5.78687 19.7948 7.74062 20.935 9.90114 21.3385L10.0847 20.3555C8.15165 19.9945 6.40355 18.9743 5.13831 17.4689L4.37277 18.1123ZM9.90114 21.3385C12.0616 21.7421 14.2952 21.384 16.2213 20.3253L15.7397 19.449C14.0163 20.3962 12.0178 20.7166 10.0847 20.3555L9.90114 21.3385Z" fill="black"/>
</svg>
