<svg width="24" height="24" viewBox="0 0 24 24" fill="none" xmlns="http://www.w3.org/2000/svg">
<path d="M17 3.99999L16.8787 3.51491C16.7908 3.53689 16.7105 3.58235 16.6464 3.64643L17 3.99999ZM4.5 16.5L4.14645 16.1464C4.05268 16.2402 4 16.3674 4 16.5H4.5ZM4.5 19.5H4C4 19.7761 4.22386 20 4.5 20V19.5ZM7.5 19.5V20C7.63261 20 7.75979 19.9473 7.85355 19.8536L7.5 19.5ZM20 6.99999L20.3536 7.35354C20.4176 7.28946 20.4631 7.20917 20.4851 7.12125L20 6.99999ZM6 15L6.35356 15.3536H6.35356L6 15ZM4 16.5V19.5H5V16.5H4ZM4.5 20H7.5V19H4.5V20ZM20.4851 7.12125C20.772 5.9735 20.4934 4.91128 19.7911 4.20893C19.0887 3.50659 18.0265 3.22797 16.8787 3.51491L17.1213 4.48506C17.9735 4.27199 18.6613 4.49338 19.0839 4.91604C19.5066 5.3387 19.728 6.02648 19.5149 6.87872L20.4851 7.12125ZM7.85355 19.8536L19.3536 8.35354L18.6464 7.64643L7.14645 19.1464L7.85355 19.8536ZM19.3536 8.35354L20.3536 7.35354L19.6464 6.64643L18.6464 7.64643L19.3536 8.35354ZM16.6464 3.64643L15.6464 4.64645L16.3536 5.35355L17.3536 4.35354L16.6464 3.64643ZM19.3536 7.64643L16.3536 4.64644L15.6464 5.35355L18.6464 8.35354L19.3536 7.64643ZM15.6464 4.64644L5.64645 14.6464L6.35356 15.3536L16.3536 5.35355L15.6464 4.64644ZM5.64645 14.6464L4.14645 16.1464L4.85355 16.8536L6.35356 15.3536L5.64645 14.6464Z" fill="black"/>
</svg>
