<svg width="24" height="24" viewBox="0 0 24 24" fill="none" xmlns="http://www.w3.org/2000/svg">
<path d="M16 10C17.1046 10 18 9.10457 18 8C18 6.89543 17.1046 6 16 6C14.8954 6 14 6.89543 14 8C14 9.10457 14.8954 10 16 10Z" stroke="black" stroke-linecap="round" stroke-linejoin="round"/>
<path d="M7.5 11L7.83218 10.6263L7.47981 10.3131L7.14645 10.6464L7.5 11ZM11.6678 15.3737C11.8742 15.5572 12.1902 15.5386 12.3737 15.3322C12.5572 15.1258 12.5386 14.8098 12.3322 14.6263L11.6678 15.3737ZM3.85355 15.3536L7.85355 11.3536L7.14645 10.6464L3.14645 14.6464L3.85355 15.3536ZM7.16782 11.3737L11.6678 15.3737L12.3322 14.6263L7.83218 10.6263L7.16782 11.3737Z" fill="black"/>
<path d="M12 15L15 12L20.5 16.5" stroke="black"/>
<rect x="3.5" y="3.5" width="17" height="17" stroke="black"/>
</svg>
