<svg width="24" height="24" viewBox="0 0 24 24" fill="none" xmlns="http://www.w3.org/2000/svg">
<path d="M17 7C18.1046 7 19 6.10457 19 5C19 3.89543 18.1046 3 17 3C15.8954 3 15 3.89543 15 5C15 6.10457 15.8954 7 17 7Z" stroke="black" stroke-linecap="round" stroke-linejoin="round"/>
<path d="M7 14C8.10457 14 9 13.1046 9 12C9 10.8954 8.10457 10 7 10C5.89543 10 5 10.8954 5 12C5 13.1046 5.89543 14 7 14Z" stroke="black" stroke-linecap="round" stroke-linejoin="round"/>
<path d="M17 21C18.1046 21 19 20.1046 19 19C19 17.8954 18.1046 17 17 17C15.8954 17 15 17.8954 15 19C15 20.1046 15.8954 21 17 21Z" stroke="black" stroke-linecap="round" stroke-linejoin="round"/>
<path d="M9 10.5L15 6.5" stroke="black" stroke-linecap="round" stroke-linejoin="round"/>
<path d="M8.5 13.5L15 18" stroke="black" stroke-linecap="round" stroke-linejoin="round"/>
</svg>
