<svg width="24" height="24" viewBox="0 0 24 24" fill="none" xmlns="http://www.w3.org/2000/svg">
<path d="M20 18.5H20.5V18V17C20.5 16.1716 19.8284 15.5 19 15.5H5C4.17157 15.5 3.5 16.1716 3.5 17V18V18.5H4H20Z" stroke="black"/>
<path d="M7.33922 6.30388L5.5 15.5H18.5L16.6608 6.30388C16.5673 5.83646 16.1569 5.5 15.6802 5.5H8.3198C7.84312 5.5 7.43271 5.83646 7.33922 6.30388Z" stroke="black"/>
<path d="M11 8C11.2761 8 11.5 7.77614 11.5 7.5C11.5 7.22386 11.2761 7 11 7V8ZM8 9.5C8 9.77614 8.22386 10 8.5 10C8.77614 10 9 9.77614 9 9.5H8ZM11 7H9.5V8H11V7ZM8 8.5V9.5H9V8.5H8ZM9.5 7C8.67157 7 8 7.67157 8 8.5H9C9 8.22386 9.22386 8 9.5 8V7Z" fill="black"/>
</svg>
