<svg width="24" height="24" viewBox="0 0 24 24" fill="none" xmlns="http://www.w3.org/2000/svg">
<circle cx="8" cy="12" r="1" fill="#F6C109"/>
<circle cx="12" cy="12" r="1" fill="#F6C109"/>
<circle cx="16" cy="12" r="1" fill="#F6C109"/>
<mask id="path-4-inside-1_115_175" fill="white">
<path fill-rule="evenodd" clip-rule="evenodd" d="M11.9474 3C16.9179 3 20.9474 7.02944 20.9474 12C20.9474 16.9706 16.9179 21 11.9474 21C10.0958 21 8.37472 20.4409 6.94395 19.4822L2 20.0526L4.2536 16.6722C3.42476 15.3103 2.94736 13.7109 2.94736 12C2.94736 7.02944 6.97681 3 11.9474 3Z"/>
</mask>
<path d="M6.94395 19.4822L6.82932 18.4888L7.19488 18.4466L7.50059 18.6514L6.94395 19.4822ZM2 20.0526L2.11463 21.046L-0.0290165 21.2934L1.16795 19.4979L2 20.0526ZM4.2536 16.6722L5.10785 16.1524L5.43913 16.6967L5.08565 17.2269L4.2536 16.6722ZM19.9474 12C19.9474 7.58173 16.3657 4 11.9474 4V2C17.4702 2 21.9474 6.47716 21.9474 12H19.9474ZM11.9474 20C16.3657 20 19.9474 16.4183 19.9474 12H21.9474C21.9474 17.5229 17.4702 22 11.9474 22V20ZM7.50059 18.6514C8.77184 19.5032 10.3001 20 11.9474 20V22C9.89143 22 7.97761 21.3785 6.38731 20.3129L7.50059 18.6514ZM7.05857 20.4756L2.11463 21.046L1.88538 19.0592L6.82932 18.4888L7.05857 20.4756ZM1.16795 19.4979L3.42155 16.1175L5.08565 17.2269L2.83205 20.6073L1.16795 19.4979ZM3.94736 12C3.94736 13.5224 4.37163 14.9426 5.10785 16.1524L3.39936 17.1921C2.47789 15.678 1.94736 13.8994 1.94736 12H3.94736ZM11.9474 4C7.52909 4 3.94736 7.58173 3.94736 12H1.94736C1.94736 6.47716 6.42452 2 11.9474 2V4Z" fill="#F6C109" mask="url(#path-4-inside-1_115_175)"/>
</svg>
