<svg width="24" height="24" viewBox="0 0 24 24" fill="none" xmlns="http://www.w3.org/2000/svg">
<path d="M10.5 11.5C10.5 13.7091 8.70914 15.5 6.5 15.5C4.29086 15.5 2.5 13.7091 2.5 11.5C2.5 9.29086 4.29086 7.5 6.5 7.5C8.70914 7.5 10.5 9.29086 10.5 11.5Z" stroke="black"/>
<circle cx="17.5" cy="11.5" r="4" stroke="black"/>
<path d="M1.5 11.5C1.22386 11.5 1 11.7239 1 12C1 12.2761 1.22386 12.5 1.5 12.5V11.5ZM1.5 12.5H3V11.5H1.5V12.5Z" fill="black"/>
<path d="M22.5 11.5C22.7761 11.5 23 11.7239 23 12C23 12.2761 22.7761 12.5 22.5 12.5V11.5ZM22.5 12.5H21V11.5H22.5V12.5Z" fill="black"/>
<path d="M10.5 10.5C11.5 10 12.5 10 13.5 10.5" stroke="black"/>
</svg>
